<?xml version="1.0" encoding="UTF-8"?>
<svg id="Layer_1" data-name="Layer 1" xmlns="http://www.w3.org/2000/svg" viewBox="0 0 250.55 258.8">
  <defs>
    <style>
      .cls-1 {
        fill: #fff;
        stroke: #231f20;
        stroke-miterlimit: 10;
        stroke-width: 4px;
      }
    </style>
  </defs>
  <path class="cls-1" d="M247.74,209c.68-5.95,.81-11.99,.81-17.79-.01-11.96-.03-23.91-.04-35.87-.04-31.81-.07-63.63-.11-95.44-.02-14.92-.03-29.83-.05-44.75-.02-15.77-23.85-12.96-34.12-12.95-20.12,.02-40.24,.05-60.36,.07-13.77,.02-28.09-.1-42.07,.23-9.52,.23-26.81-1.32-26.79,12.55l.17,150.71c-7.5-2.82-15.84-4.4-24.65-4.39-32.36,.04-58.56,21.4-58.53,47.71,.03,26.31,26.28,47.62,58.64,47.58,16.04-.02,32.49-5.4,44.29-16.53,14.76-13.92,14.18-33.33,14.16-52.11-.02-16.05-.04-32.09-.05-48.14s-.04-31.7-.05-47.55l95.57-.11,.08,73.67c-7.5-2.82-15.84-4.4-24.65-4.39-32.36,.04-58.56,21.4-58.53,47.71,.03,26.31,26.28,47.62,58.64,47.58,15.4-.02,31.13-4.96,42.83-15.19,9.68-8.46,13.42-20.33,14.82-32.6ZM118.95,58.45l-.03-22.26,95.57-.11,.03,22.26-95.57,.11Z"/>
</svg>