<?xml version="1.0" encoding="UTF-8"?>
<svg id="Layer_1" data-name="Layer 1" xmlns="http://www.w3.org/2000/svg" viewBox="0 0 235.99 312.77">
  <defs>
    <style>
      .cls-1 {
        fill: #fff;
        stroke: #231f20;
        stroke-miterlimit: 10;
        stroke-width: 4px;
      }
    </style>
  </defs>
  <path class="cls-1" d="M230.94,187.27c-1.73-5.73-3.99-11.34-6.29-16.66-4.74-10.98-9.47-21.95-14.21-32.93-12.6-29.21-25.21-58.42-37.81-87.63-5.91-13.7-11.82-27.39-17.73-41.09-6.25-14.48-27.03-2.48-36.46,1.59-18.47,7.97-36.95,15.94-55.42,23.91-12.64,5.45-25.84,11.01-38.55,16.84-8.65,3.97-25.15,9.38-19.65,22.11l59.71,138.38c-8,.37-16.29,2.22-24.38,5.71-29.71,12.82-45.34,42.8-34.92,66.96,10.43,24.16,42.96,33.36,72.67,20.54,14.73-6.36,27.71-17.8,34.16-32.68,8.06-18.62-.15-36.22-7.59-53.47-6.36-14.73-12.71-29.46-19.07-44.2-6.28-14.55-12.56-29.11-18.84-43.66l87.75-37.86,29.19,67.64c-8,.37-16.29,2.22-24.38,5.71-29.71,12.82-45.34,42.8-34.92,66.96,10.43,24.16,42.96,33.36,72.67,20.54,14.14-6.1,26.63-16.86,33.34-30.88,5.55-11.6,4.29-23.98,.73-35.81ZM53.14,99.86l-8.82-20.44,87.75-37.86,8.82,20.44L53.14,99.86Z"/>
</svg>