<?xml version="1.0" encoding="UTF-8"?>
<svg id="Layer_1" data-name="Layer 1" xmlns="http://www.w3.org/2000/svg" viewBox="0 0 303.21 278.38">
  <defs>
    <style>
      .cls-1 {
        fill: #fff;
        stroke: #231f20;
        stroke-miterlimit: 10;
        stroke-width: 4px;
      }
    </style>
  </defs>
  <path class="cls-1" d="M236.35,246.21c2.59-5.4,4.7-11.06,6.59-16.54,3.91-11.3,7.81-22.6,11.72-33.9,10.4-30.07,20.79-60.14,31.19-90.2,4.87-14.1,9.75-28.2,14.62-42.29,5.15-14.91-18.28-20.06-27.99-23.42-19.01-6.57-38.03-13.15-57.04-19.72-13.01-4.5-26.51-9.3-39.82-13.57-9.07-2.91-24.89-10.03-29.42,3.07l-49.25,142.44c-6.16-5.12-13.52-9.35-21.85-12.23-30.58-10.57-62.34,1.02-70.94,25.89-8.6,24.87,9.22,53.6,39.8,64.18,15.16,5.24,32.47,5.55,47.26-1.09,18.51-8.31,24.32-26.84,30.46-44.59,5.24-15.16,10.49-30.33,15.73-45.49,5.18-14.98,10.36-29.96,15.54-44.94l90.32,31.23-24.07,69.63c-6.16-5.12-13.52-9.35-21.85-12.23-30.58-10.57-62.34,1.02-70.94,25.89-8.6,24.87,9.22,53.6,39.8,64.18,14.56,5.03,31.03,5.51,45.44-.31,11.92-4.82,19.34-14.81,24.69-25.94ZM164.03,61.76l7.28-21.04,90.32,31.23-7.28,21.04-90.32-31.23Z"/>
</svg>