<?xml version="1.0" encoding="UTF-8"?>
<svg id="Layer_1" data-name="Layer 1" xmlns="http://www.w3.org/2000/svg" viewBox="0 0 93.16 67.38">
  <defs>
    <style>
      .cls-1 {
        fill: #fff;
      }

      .cls-1, .cls-2 {
        stroke: #231f20;
        stroke-miterlimit: 10;
        stroke-width: .5px;
      }

      .cls-3 {
        fill: #a8c7cc;
        font-family: LOTTERIACHAB-KSCpc-EUC-H, 'LOTTERIA CHAB';
        font-size: 54.77px;
      }

      .cls-2 {
        fill: #fcb454;
      }
    </style>
  </defs>
  <text class="cls-3" transform="translate(8.36 46.84) scale(.98 1)"><tspan x="0" y="0">YR</tspan></text>
  <g>
    <path class="cls-2" d="M.36,9.49C-.53,3.01,4.26,.85,9.22,.85c6.44,0,9.51,2.94,9.99,9.6,.24,3.48,1,9.12,2.42,13.68,.47,1.5,2.13,.84,1.83-.36-.83-3.48-1.6-9.54-1.89-12.66C20.75,2.89,25.77,.85,32.92,.85c8.39,0,12,4.02,10.52,10.8-2.13,9.78-6.91,19.2-12.35,22.74-.18,2.22-.3,7.62-.53,9.72-.47,4.5-3.13,8.04-8.04,8.04s-7.68-3.6-8.16-8.04c-.3-3.36-.3-6.36-.47-9.72C6.74,29.77,1.72,18.79,.36,9.49Z"/>
    <path class="cls-2" d="M64.89,35.29c-.12,2.94-.35,5.88-.65,8.76-.41,4.5-2.9,8.04-7.8,8.04s-7.45-3.54-7.86-8.04c-.77-7.14-.89-14.76-.83-22.2C47.87,4.63,53.13,.37,68.67,.25c12.23-.12,18.97,6.24,18.85,18.66,0,8.34-2.66,13.14-9.22,15.6-1,.3-.59,1.5,.35,1.26,1.71-.36,3.6-1.44,5.14-2.46,2.07,1.8,4.2,4.44,5.5,8.16,1.36,3.96,.18,7.68-4.31,9.72-4.85,2.28-10.7,.06-13.42-4.5-1.83-3.06-2.96-7.08-3.31-11.28-1.12,0-2.25-.06-3.37-.12Zm7.27-14.64c-2.78-1.02-4.91-2.22-7.09-4.5-.71-.66-2.07,.66-1.3,1.74,1.71,2.34,4.67,3.72,7.45,4.74,1.24,.42,1.77-1.56,.95-1.98Z"/>
  </g>
  <path class="cls-1" d="M34.83,24.69c-.36,0-.72-.1-1.04-.29-.94-.58-1.24-1.81-.66-2.75,4.6-7.52,4.72-12.78,4.72-12.83,.01-1.1,.91-1.98,2-1.98h.01c1.1,0,1.99,.89,1.99,1.99,0,.25-.06,6.33-5.3,14.91-.38,.62-1.03,.96-1.71,.96Z"/>
  <path class="cls-1" d="M81.05,28.5c-.36,0-.72-.1-1.04-.3-.94-.58-1.24-1.81-.66-2.75,3.2-5.22-.14-14.6-.17-14.69-.38-1.04,.16-2.19,1.2-2.56,1.04-.38,2.18,.16,2.56,1.19,.17,.46,4.04,11.28-.17,18.15-.38,.62-1.03,.96-1.71,.96Z"/>
</svg>