<?xml version="1.0" encoding="UTF-8"?>
<svg id="Layer_1" data-name="Layer 1" xmlns="http://www.w3.org/2000/svg" viewBox="0 0 203.52 176.97">
  <defs>
    <style>
      .cls-1 {
        fill: none;
        stroke: #231f20;
        stroke-miterlimit: 10;
      }

      .cls-2 {
        fill: #231f20;
        font-family: Cafe24Ohsquare, 'Cafe24 Ohsquare';
        font-size: 6.39px;
      }

      .cls-3 {
        fill: #f89a20;
      }
    </style>
  </defs>
  <text class="cls-2" transform="translate(92.62 5.77)"><tspan x="0" y="0">외향성(E)</tspan></text>
  <text class="cls-2" transform="translate(159.58 31.16)"><tspan x="0" y="0">감각(S)</tspan></text>
  <text class="cls-2" transform="translate(183.4 90.29)"><tspan x="0" y="0">느낌(F)</tspan></text>
  <text class="cls-2" transform="translate(159.41 152.85)"><tspan x="0" y="0">판단(J)</tspan></text>
  <text class="cls-2" transform="translate(27.34 152.85)"><tspan x="0" y="0">직감(N)</tspan></text>
  <text class="cls-2" transform="translate(0 90.29)"><tspan x="0" y="0">생각(T)</tspan></text>
  <text class="cls-2" transform="translate(23.58 31.16)"><tspan x="0" y="0">인식(P)</tspan></text>
  <text class="cls-2" transform="translate(93.24 174.64)"><tspan x="0" y="0">내향성(I)</tspan></text>
  <g>
    <g>
      <polygon class="cls-1" points="156.67 33.64 101.81 11.27 47.2 34.25 24.83 89.11 47.81 143.72 102.67 166.09 157.28 143.11 179.65 88.25 156.67 33.64"/>
      <polygon class="cls-1" points="131.5 59.09 102.01 47.06 72.65 59.42 60.62 88.91 72.98 118.27 102.47 130.3 131.83 117.95 143.86 88.45 131.5 59.09"/>
      <line class="cls-1" x1="101.81" y1="11.27" x2="102.67" y2="166.09"/>
      <line class="cls-1" x1="156.67" y1="33.64" x2="47.81" y2="143.72"/>
      <line class="cls-1" x1="47.2" y1="34.25" x2="157.28" y2="143.11"/>
      <line class="cls-1" x1="179.65" y1="88.25" x2="24.83" y2="89.11"/>
    </g>
    <polygon class="cls-1" points="102.02 29.39 72.65 59.42 42.23 89.02 83.47 107.67 102.56 146.26 146.63 132.58 142.97 89.49 145.69 44.74 102.02 29.39"/>
    <circle class="cls-3" cx="102.02" cy="29.39" r="4.51"/>
    <circle class="cls-3" cx="72.65" cy="59.42" r="4.51"/>
    <circle class="cls-3" cx="146.63" cy="132.58" r="4.51"/>
    <circle class="cls-3" cx="42.23" cy="89.02" r="4.51"/>
    <circle class="cls-3" cx="142.97" cy="89.49" r="4.51"/>
    <circle class="cls-3" cx="145.69" cy="44.74" r="4.51"/>
    <circle class="cls-3" cx="83.47" cy="107.67" r="4.51"/>
    <circle class="cls-3" cx="102.56" cy="146.26" r="4.51"/>
  </g>
</svg>