<?xml version="1.0" encoding="UTF-8"?>
<svg id="Layer_1" data-name="Layer 1" xmlns="http://www.w3.org/2000/svg" viewBox="0 0 274.01 272.18">
  <defs>
    <style>
      .cls-1, .cls-2, .cls-3, .cls-4, .cls-5 {
        stroke-miterlimit: 10;
      }

      .cls-1, .cls-3 {
        fill: #fff;
      }

      .cls-1, .cls-5 {
        stroke: #231f20;
        stroke-width: .5px;
      }

      .cls-2 {
        fill: #1f1e1f;
        stroke: #6d6e71;
        stroke-width: 7.8px;
      }

      .cls-3 {
        stroke-width: 1.64px;
      }

      .cls-3, .cls-4, .cls-6 {
        stroke: #fff;
      }

      .cls-4, .cls-6 {
        fill: none;
        stroke-linecap: round;
        stroke-width: 3.1px;
      }

      .cls-5 {
        fill: #fcb454;
      }

      .cls-7 {
        fill: #aeadae;
      }

      .cls-6 {
        stroke-linejoin: round;
      }
    </style>
  </defs>
  <g>
    <ellipse class="cls-2" cx="137" cy="136.09" rx="133.11" ry="132.19"/>
    <ellipse class="cls-3" cx="137" cy="136.09" rx="60.18" ry="59.76"/>
    <ellipse class="cls-7" cx="137" cy="136.09" rx="6.84" ry="6.79"/>
    <path class="cls-6" d="M80.53,49.44c31.46-20.28,70.87-22.94,104.34-8.37"/>
    <path class="cls-4" d="M200.46,233.51c-25.82,16.62-56.97,21.39-85.81,14.51"/>
    <path class="cls-4" d="M108.56,54.34c19.6-7.08,41.05-7.4,60.77-1.07"/>
    <path class="cls-4" d="M181.97,224.55c-14.41,7.1-30.26,10.26-45.93,9.51"/>
  </g>
  <g>
    <g>
      <path class="cls-5" d="M89.72,117.53c-.94-7.2,4.13-9.59,9.38-9.59,6.82,0,10.07,3.26,10.57,10.66,.25,3.86,1.06,10.13,2.56,15.19,.5,1.67,2.25,.93,1.94-.4-.88-3.86-1.69-10.59-2-14.06-.88-9.13,4.44-11.39,12.01-11.39,8.88,0,12.7,4.46,11.13,11.99-2.25,10.86-7.32,21.32-13.07,25.25-.19,2.46-.31,8.46-.56,10.79-.5,5-3.31,8.93-8.51,8.93s-8.13-4-8.63-8.93c-.31-3.73-.31-7.06-.5-10.79-7.57-5.13-12.88-17.32-14.32-27.65Z"/>
      <path class="cls-5" d="M158.01,146.18c-.13,3.26-.38,6.53-.69,9.73-.44,5-3.06,8.93-8.26,8.93s-7.88-3.93-8.32-8.93c-.81-7.93-.94-16.39-.88-24.65,.13-19.12,5.69-23.85,22.14-23.99,12.95-.13,20.08,6.93,19.95,20.72,0,9.26-2.81,14.59-9.76,17.32-1.06,.33-.63,1.67,.38,1.4,1.81-.4,3.81-1.6,5.44-2.73,2.19,2,4.44,4.93,5.82,9.06,1.44,4.4,.19,8.53-4.57,10.79-5.13,2.53-11.32,.07-14.2-5-1.94-3.4-3.13-7.86-3.5-12.53-1.19,0-2.38-.07-3.56-.13Zm7.69-16.26c-2.94-1.13-5.19-2.46-7.51-5-.75-.73-2.19,.73-1.38,1.93,1.81,2.6,4.94,4.13,7.88,5.26,1.31,.47,1.88-1.73,1-2.2Z"/>
    </g>
    <path class="cls-1" d="M126.31,138.43c-.38,0-.76-.11-1.1-.33-1-.64-1.31-2.01-.7-3.05,4.87-8.36,4.99-14.19,4.99-14.25,.01-1.22,.96-2.2,2.12-2.2h.01c1.16,0,2.1,.99,2.1,2.21,0,.28-.06,7.03-5.61,16.55-.4,.68-1.09,1.06-1.81,1.06Z"/>
    <path class="cls-1" d="M175.22,142.66c-.38,0-.76-.11-1.1-.33-1-.64-1.31-2.01-.7-3.05,3.39-5.8-.15-16.21-.18-16.32-.4-1.15,.17-2.43,1.27-2.85,1.1-.42,2.31,.17,2.71,1.32,.18,.51,4.28,12.53-.18,20.16-.4,.68-1.09,1.06-1.81,1.06Z"/>
  </g>
</svg>